<mxfile host="app.diagrams.net" modified="2024-06-18T01:21:22.234Z" agent="Mozilla/5.0 (Windows NT 10.0; Win64; x64) AppleWebKit/537.36 (KHTML, like Gecko) Chrome/125.0.0.0 Safari/537.36" etag="a8B94fq9ZJO1F-Koybf6" version="24.5.4" type="github">
  <diagram name="第 1 页" id="8z0OwSUnoLn5wmkjWjVZ">
    <mxGraphModel dx="2261" dy="1918" grid="1" gridSize="10" guides="1" tooltips="1" connect="1" arrows="1" fold="1" page="1" pageScale="1" pageWidth="827" pageHeight="1169" math="0" shadow="0">
      <root>
        <mxCell id="0" />
        <mxCell id="1" parent="0" />
        <mxCell id="gvNnwEYfheQ7t3sPF90q-8" value="" style="rounded=0;whiteSpace=wrap;html=1;fillColor=#f9f7ed;strokeColor=#36393d;" vertex="1" parent="1">
          <mxGeometry x="39" y="-160" width="340" height="160" as="geometry" />
        </mxCell>
        <mxCell id="gvNnwEYfheQ7t3sPF90q-2" value="" style="rounded=0;whiteSpace=wrap;html=1;fillColor=#f9f7ed;strokeColor=#36393d;" vertex="1" parent="1">
          <mxGeometry x="74" y="80" width="270" height="370" as="geometry" />
        </mxCell>
        <mxCell id="gvNnwEYfheQ7t3sPF90q-3" value="基本信息 StaffTZDefines&lt;div&gt;履历子集 StaffResumeTZDefines&lt;/div&gt;&lt;div&gt;......&lt;/div&gt;" style="rounded=1;whiteSpace=wrap;html=1;fillColor=#fff2cc;strokeColor=#d6b656;" vertex="1" parent="1">
          <mxGeometry x="104" y="150" width="210" height="110" as="geometry" />
        </mxCell>
        <mxCell id="gvNnwEYfheQ7t3sPF90q-4" value="员工信息&amp;nbsp; &amp;nbsp;hred.staff" style="text;html=1;align=center;verticalAlign=middle;whiteSpace=wrap;rounded=0;" vertex="1" parent="1">
          <mxGeometry x="64" y="90" width="150" height="30" as="geometry" />
        </mxCell>
        <mxCell id="gvNnwEYfheQ7t3sPF90q-5" value="&lt;div&gt;&lt;br&gt;&lt;/div&gt;证件子集 StaffCertTZDefines&lt;div&gt;合同子集 StaffCtrtTZDefines&lt;/div&gt;&lt;div&gt;......&lt;/div&gt;" style="rounded=1;whiteSpace=wrap;html=1;fillColor=#dae8fc;strokeColor=#6c8ebf;" vertex="1" parent="1">
          <mxGeometry x="104" y="290" width="210" height="110" as="geometry" />
        </mxCell>
        <mxCell id="gvNnwEYfheQ7t3sPF90q-6" value="&lt;div&gt;&lt;br&gt;&lt;/div&gt;ss.defines.StaffBasicDefines&lt;div&gt;ss.defines.StaffResumeDefines&lt;br&gt;&lt;/div&gt;&lt;div&gt;......&lt;/div&gt;" style="rounded=1;whiteSpace=wrap;html=1;fillColor=#fff2cc;strokeColor=#d6b656;" vertex="1" parent="1">
          <mxGeometry x="69" y="-110" width="280" height="90" as="geometry" />
        </mxCell>
        <mxCell id="gvNnwEYfheQ7t3sPF90q-7" value="员工自定义项组&amp;nbsp;&amp;nbsp;ss.defines" style="text;html=1;align=center;verticalAlign=middle;whiteSpace=wrap;rounded=0;" vertex="1" parent="1">
          <mxGeometry x="48" y="-150" width="150" height="30" as="geometry" />
        </mxCell>
        <mxCell id="gvNnwEYfheQ7t3sPF90q-9" value="" style="endArrow=classic;html=1;rounded=0;entryX=0.5;entryY=1;entryDx=0;entryDy=0;" edge="1" parent="1" source="gvNnwEYfheQ7t3sPF90q-3" target="gvNnwEYfheQ7t3sPF90q-6">
          <mxGeometry width="50" height="50" relative="1" as="geometry">
            <mxPoint x="390" y="160" as="sourcePoint" />
            <mxPoint x="440" y="110" as="targetPoint" />
          </mxGeometry>
        </mxCell>
        <mxCell id="gvNnwEYfheQ7t3sPF90q-13" value="" style="rounded=0;whiteSpace=wrap;html=1;fillColor=#f9f7ed;strokeColor=#36393d;" vertex="1" parent="1">
          <mxGeometry x="480" y="80" width="270" height="370" as="geometry" />
        </mxCell>
        <mxCell id="gvNnwEYfheQ7t3sPF90q-14" value="继承的员工元数据&lt;br&gt;&lt;div&gt;......&lt;/div&gt;" style="rounded=1;whiteSpace=wrap;html=1;fillColor=#fff2cc;strokeColor=#d6b656;" vertex="1" parent="1">
          <mxGeometry x="510" y="150" width="210" height="110" as="geometry" />
        </mxCell>
        <mxCell id="gvNnwEYfheQ7t3sPF90q-15" value="候选人&amp;nbsp; &amp;nbsp;&lt;span style=&quot;color: rgb(51, 51, 51); font-family: -apple-system, BlinkMacSystemFont, &amp;quot;Segoe UI&amp;quot;, Roboto, Ubuntu, &amp;quot;Helvetica Neue&amp;quot;, Arial, &amp;quot;PingFang SC&amp;quot;, &amp;quot;Hiragino Sans GB&amp;quot;, &amp;quot;Microsoft YaHei UI&amp;quot;, &amp;quot;Microsoft JhengHei&amp;quot;, &amp;quot;Source Han Sans CN&amp;quot;, sans-serif; font-size: 13px; text-align: left; text-wrap: nowrap; background-color: rgb(243, 244, 246);&quot;&gt;hred.hrcandidate&lt;/span&gt;" style="text;html=1;align=center;verticalAlign=middle;whiteSpace=wrap;rounded=0;" vertex="1" parent="1">
          <mxGeometry x="490" y="90" width="150" height="30" as="geometry" />
        </mxCell>
        <mxCell id="gvNnwEYfheQ7t3sPF90q-16" value="继承的员工元数据&lt;br&gt;&lt;div&gt;......&lt;/div&gt;" style="rounded=1;whiteSpace=wrap;html=1;fillColor=#dae8fc;strokeColor=#6c8ebf;" vertex="1" parent="1">
          <mxGeometry x="510" y="290" width="210" height="110" as="geometry" />
        </mxCell>
        <mxCell id="gvNnwEYfheQ7t3sPF90q-19" value="" style="rounded=0;whiteSpace=wrap;html=1;fillColor=#f9f7ed;strokeColor=#36393d;" vertex="1" parent="1">
          <mxGeometry x="-440" y="80" width="270" height="370" as="geometry" />
        </mxCell>
        <mxCell id="gvNnwEYfheQ7t3sPF90q-20" value="&lt;div&gt;&lt;br&gt;&lt;/div&gt;基本信息特征 StaffTZDefines&lt;div&gt;履历子集&amp;nbsp;StaffResumeTZDefines&lt;/div&gt;&lt;div&gt;......&lt;/div&gt;" style="rounded=1;whiteSpace=wrap;html=1;fillColor=#fff2cc;strokeColor=#d6b656;" vertex="1" parent="1">
          <mxGeometry x="-410" y="150" width="210" height="110" as="geometry" />
        </mxCell>
        <mxCell id="gvNnwEYfheQ7t3sPF90q-21" value="变更单&amp;nbsp; &amp;nbsp;hred.staffmodify" style="text;html=1;align=center;verticalAlign=middle;whiteSpace=wrap;rounded=0;" vertex="1" parent="1">
          <mxGeometry x="-440" y="90" width="150" height="30" as="geometry" />
        </mxCell>
        <mxCell id="gvNnwEYfheQ7t3sPF90q-22" value="&lt;div&gt;&lt;br&gt;&lt;/div&gt;证件子集&amp;nbsp;StaffCertTZDefines&lt;div&gt;合同子集&amp;nbsp;StaffCtrtTZDefines&lt;/div&gt;&lt;div&gt;......&lt;/div&gt;" style="rounded=1;whiteSpace=wrap;html=1;fillColor=#dae8fc;strokeColor=#6c8ebf;" vertex="1" parent="1">
          <mxGeometry x="-410" y="290" width="210" height="110" as="geometry" />
        </mxCell>
        <mxCell id="gvNnwEYfheQ7t3sPF90q-23" value="" style="endArrow=classic;startArrow=classic;html=1;rounded=0;entryX=0;entryY=0.5;entryDx=0;entryDy=0;" edge="1" parent="1" source="gvNnwEYfheQ7t3sPF90q-20" target="gvNnwEYfheQ7t3sPF90q-6">
          <mxGeometry width="50" height="50" relative="1" as="geometry">
            <mxPoint x="-70" y="250" as="sourcePoint" />
            <mxPoint x="-20" y="200" as="targetPoint" />
          </mxGeometry>
        </mxCell>
        <mxCell id="gvNnwEYfheQ7t3sPF90q-24" value="" style="endArrow=classic;startArrow=classic;html=1;rounded=0;entryX=0;entryY=0.5;entryDx=0;entryDy=0;exitX=1;exitY=0.5;exitDx=0;exitDy=0;" edge="1" parent="1" source="gvNnwEYfheQ7t3sPF90q-22" target="gvNnwEYfheQ7t3sPF90q-5">
          <mxGeometry width="50" height="50" relative="1" as="geometry">
            <mxPoint x="-100" y="390" as="sourcePoint" />
            <mxPoint x="134" y="390" as="targetPoint" />
          </mxGeometry>
        </mxCell>
        <mxCell id="gvNnwEYfheQ7t3sPF90q-25" value="DB级联方式" style="text;html=1;align=center;verticalAlign=middle;whiteSpace=wrap;rounded=0;" vertex="1" parent="1">
          <mxGeometry x="-140" y="10" width="80" height="30" as="geometry" />
        </mxCell>
        <mxCell id="gvNnwEYfheQ7t3sPF90q-26" value="DB级联方式" style="text;html=1;align=center;verticalAlign=middle;whiteSpace=wrap;rounded=0;" vertex="1" parent="1">
          <mxGeometry x="-80" y="310" width="80" height="30" as="geometry" />
        </mxCell>
        <mxCell id="gvNnwEYfheQ7t3sPF90q-27" value="" style="endArrow=classic;html=1;rounded=0;exitX=1;exitY=0.5;exitDx=0;exitDy=0;entryX=0;entryY=0.5;entryDx=0;entryDy=0;" edge="1" parent="1" source="gvNnwEYfheQ7t3sPF90q-6" target="gvNnwEYfheQ7t3sPF90q-28">
          <mxGeometry width="50" height="50" relative="1" as="geometry">
            <mxPoint x="230" y="210" as="sourcePoint" />
            <mxPoint x="770" y="-30" as="targetPoint" />
          </mxGeometry>
        </mxCell>
        <mxCell id="gvNnwEYfheQ7t3sPF90q-28" value="其他元数据？？？" style="rounded=1;whiteSpace=wrap;html=1;fillColor=#f9f7ed;strokeColor=#36393d;" vertex="1" parent="1">
          <mxGeometry x="670" y="-110" width="120" height="60" as="geometry" />
        </mxCell>
        <mxCell id="gvNnwEYfheQ7t3sPF90q-29" value="普通级联方式" style="text;html=1;align=center;verticalAlign=middle;whiteSpace=wrap;rounded=0;" vertex="1" parent="1">
          <mxGeometry x="480" y="-60" width="60" height="30" as="geometry" />
        </mxCell>
        <mxCell id="gvNnwEYfheQ7t3sPF90q-30" value="" style="endArrow=classic;html=1;rounded=0;exitX=0;exitY=0.5;exitDx=0;exitDy=0;entryX=1;entryY=0.5;entryDx=0;entryDy=0;" edge="1" parent="1" source="gvNnwEYfheQ7t3sPF90q-14" target="gvNnwEYfheQ7t3sPF90q-3">
          <mxGeometry width="50" height="50" relative="1" as="geometry">
            <mxPoint x="230" y="210" as="sourcePoint" />
            <mxPoint x="430" y="200" as="targetPoint" />
          </mxGeometry>
        </mxCell>
        <mxCell id="gvNnwEYfheQ7t3sPF90q-31" value="" style="endArrow=classic;html=1;rounded=0;exitX=0.01;exitY=0.684;exitDx=0;exitDy=0;entryX=1;entryY=0.684;entryDx=0;entryDy=0;entryPerimeter=0;exitPerimeter=0;" edge="1" parent="1" source="gvNnwEYfheQ7t3sPF90q-16" target="gvNnwEYfheQ7t3sPF90q-5">
          <mxGeometry width="50" height="50" relative="1" as="geometry">
            <mxPoint x="706" y="280" as="sourcePoint" />
            <mxPoint x="370" y="280" as="targetPoint" />
          </mxGeometry>
        </mxCell>
        <mxCell id="gvNnwEYfheQ7t3sPF90q-32" value="继承元数据" style="text;html=1;align=center;verticalAlign=middle;whiteSpace=wrap;rounded=0;" vertex="1" parent="1">
          <mxGeometry x="430" y="170" width="100" height="30" as="geometry" />
        </mxCell>
        <mxCell id="gvNnwEYfheQ7t3sPF90q-33" value="继承元数据" style="text;html=1;align=center;verticalAlign=middle;whiteSpace=wrap;rounded=0;" vertex="1" parent="1">
          <mxGeometry x="370" y="330" width="100" height="30" as="geometry" />
        </mxCell>
        <mxCell id="gvNnwEYfheQ7t3sPF90q-35" value="特征组" style="text;html=1;align=center;verticalAlign=middle;whiteSpace=wrap;rounded=0;fontStyle=1;fillColor=#ffff88;strokeColor=#36393d;" vertex="1" parent="1">
          <mxGeometry x="69" y="-110" width="60" height="30" as="geometry" />
        </mxCell>
        <mxCell id="gvNnwEYfheQ7t3sPF90q-36" value="特征组" style="text;html=1;align=center;verticalAlign=middle;whiteSpace=wrap;rounded=0;fillColor=#ffff88;strokeColor=#36393d;fontStyle=1" vertex="1" parent="1">
          <mxGeometry x="-413" y="150" width="60" height="30" as="geometry" />
        </mxCell>
        <mxCell id="gvNnwEYfheQ7t3sPF90q-37" value="特征组" style="text;html=1;align=center;verticalAlign=middle;whiteSpace=wrap;rounded=0;fontStyle=1;fillColor=#ffff88;strokeColor=#36393d;" vertex="1" parent="1">
          <mxGeometry x="-413" y="290" width="60" height="30" as="geometry" />
        </mxCell>
        <mxCell id="gvNnwEYfheQ7t3sPF90q-38" value="特征组" style="text;html=1;align=center;verticalAlign=middle;whiteSpace=wrap;rounded=0;fillColor=#ffff88;strokeColor=#36393d;fontStyle=1" vertex="1" parent="1">
          <mxGeometry x="104" y="290" width="60" height="30" as="geometry" />
        </mxCell>
      </root>
    </mxGraphModel>
  </diagram>
</mxfile>
